<?xml version="1.0" encoding="UTF-8"?>
<svg id="_Слой_1" data-name="Слой_1" xmlns="http://www.w3.org/2000/svg" version="1.1" viewBox="0 0 30 30">
  <!-- Generator: Adobe Illustrator 29.8.1, SVG Export Plug-In . SVG Version: 2.1.1 Build 2)  -->
  <defs>
    <style>
      .st0 {
        fill: #fff;
      }
    </style>
  </defs>
  <path class="st0" d="M18.99,0v.96h3.12v.96h.96v.96h1.92v1.2h.96v.96h.96v1.92h1.2v.96h.96v3.12h.94v7.94h-.94v3.12h-.96v.96h-1.2v1.92h-.96v.96h-.96v.96h-1.92v1.2h-.96v.96h-3.12v.96h-7.96v-.96h-3.08l-.04-.04v-.92h-.92l-.04-.04v-1.16h-1.88l-.04-.04v-.92h-.92l-.04-.04v-.92h-1.16l-.04-.04v-1.88h-.92l-.04-.04v-.92h-.92l-.04-.04v-3.08h-.96v-7.94h.96v-3.12h.96v-.96h.96v-1.92h1.2v-.96h.96v-1.2h1.92v-.96h.96v-.96h3.12v-.96h7.96ZM18.94,1.94h-7.87v.96h-2.16v1.2h-1.92v.96h-.96v.96h-.96v.96h-.96v1.92h-1.2v2.16h-.96v7.89h.96v1.92h1.2v2.16h.96v.96h.96v.96h.96v.96h1.92v.96h2.16v1.2h7.87v-1.2h1.92v-.96h2.16v-.96h.96v-.96h.96v-.96h.96v-2.16h.96v-1.92h1.2v-7.89h-1.16l-.04-.04v-2.12h-.92l-.04-.04v-1.88h-.92l-.04-.04v-.92h-.92l-.04-.04v-.92h-.92l-.04-.04v-.92h-2.12l-.04-.04v-1.16h-1.88l-.04-.04v-.92Z"/>
</svg>
