<?xml version="1.0" encoding="UTF-8"?>
<svg id="_Слой_1" data-name="Слой_1" xmlns="http://www.w3.org/2000/svg" version="1.1" viewBox="0 0 30 30">
  <!-- Generator: Adobe Illustrator 29.8.1, SVG Export Plug-In . SVG Version: 2.1.1 Build 2)  -->
  <defs>
    <style>
      .st0 {
        fill: #bfbfbf;
      }
    </style>
  </defs>
  <polygon class="st0" points="18.03 4.08 18.03 5.04 20.91 5.04 20.91 6 22.11 6 22.11 6.95 23.07 6.95 23.07 7.91 24.03 7.91 24.03 8.87 24.99 8.87 24.99 11.99 25.95 11.99 25.95 18.01 24.99 18.01 24.99 20.89 24.03 20.89 24.03 22.09 23.07 22.09 23.07 23.05 22.11 23.05 22.11 24 20.91 24 20.91 24.96 18.03 24.96 18.03 25.92 12.03 25.92 11.99 25.89 11.99 24.96 8.91 24.96 8.87 24.93 8.87 24 7.95 24 7.91 23.97 7.91 23.05 6.99 23.05 6.95 23.01 6.95 22.09 6.03 22.09 6 22.05 6 20.89 5.07 20.89 5.04 20.85 5.04 18.01 4.11 18.01 4.08 17.97 4.08 11.99 5.04 11.99 5.04 8.87 6 8.87 6 7.91 6.95 7.91 6.95 6.95 7.91 6.95 7.91 6 8.87 6 8.87 5.04 11.99 5.04 11.99 4.08 18.03 4.08"/>
</svg>