<?xml version="1.0" encoding="UTF-8"?>
<svg id="_Слой_1" data-name="Слой_1" xmlns="http://www.w3.org/2000/svg" version="1.1" viewBox="0 0 178.36 240">
  <!-- Generator: Adobe Illustrator 29.8.1, SVG Export Plug-In . SVG Version: 2.1.1 Build 2)  -->
  <polygon points="103.26 46.94 103.26 51.63 112.65 51.63 112.65 56.33 117.35 56.32 117.34 61.02 126.73 61.02 126.73 65.72 131.43 65.71 131.42 70.41 136.12 70.41 136.12 79.79 140.82 79.79 140.81 84.49 145.51 84.49 145.51 93.88 150.2 93.88 150.2 107.96 154.89 107.96 154.89 150.2 150.2 150.2 150.2 168.98 154.89 168.98 154.89 178.36 159.59 178.36 159.59 183.06 164.28 183.06 164.28 187.75 154.89 187.75 154.9 183.06 150.2 183.06 150.2 178.36 145.5 178.37 145.51 173.67 140.81 173.67 140.81 145.51 145.51 145.51 145.51 112.65 140.81 112.65 140.81 98.57 136.12 98.57 136.12 84.49 131.42 84.49 131.43 79.79 126.73 79.8 126.73 75.1 117.34 75.1 117.35 70.4 112.65 70.41 112.65 65.71 107.95 65.72 107.96 61.02 98.57 61.02 98.57 56.33 75.1 56.33 75.1 61.02 65.71 61.02 65.71 65.71 56.33 65.71 56.33 70.41 51.63 70.4 51.63 75.1 46.94 75.1 46.94 79.8 42.24 79.79 42.24 89.18 37.55 89.18 37.55 93.88 32.86 93.88 32.86 103.26 28.16 103.26 28.17 107.96 23.47 107.95 23.47 112.65 18.77 112.65 18.78 117.34 9.39 117.34 9.39 122.04 0 122.04 0 112.65 9.39 112.65 9.39 107.95 14.08 107.96 14.08 103.26 18.78 103.27 18.77 98.57 23.47 98.57 23.47 93.87 28.16 93.88 28.16 84.49 32.86 84.49 32.85 79.79 37.55 79.79 37.55 70.41 42.25 70.41 42.24 65.71 46.94 65.72 46.94 61.02 51.63 61.02 51.63 56.33 61.02 56.33 61.02 51.63 70.41 51.63 70.41 46.94 103.26 46.94" fill="#7f7f7f"/>
  <polygon points="98.57 70.41 98.57 75.1 103.27 75.1 103.26 79.8 107.96 79.79 107.96 84.49 117.34 84.49 117.34 93.88 122.04 93.87 122.04 98.57 126.73 98.57 126.73 103.27 131.43 103.26 131.43 150.2 126.73 150.2 126.73 183.06 131.43 183.06 131.42 187.75 136.12 187.75 136.12 192.45 140.82 192.44 140.81 197.14 145.51 197.14 145.51 201.83 154.89 201.83 154.89 211.22 140.81 211.22 140.82 206.52 136.12 206.53 136.12 197.14 126.73 197.14 126.73 192.44 122.04 192.45 122.04 183.06 117.34 183.06 117.34 145.51 122.04 145.51 122.04 107.96 117.34 107.96 117.34 98.57 112.65 98.57 112.65 89.18 103.26 89.18 103.26 84.49 93.88 84.49 93.88 79.79 79.79 79.79 79.79 84.49 70.41 84.49 70.41 89.18 61.02 89.18 61.02 98.57 56.33 98.57 56.33 107.96 51.63 107.95 51.63 112.65 46.94 112.65 46.94 122.04 42.24 122.04 42.25 126.73 37.55 126.73 37.55 131.43 32.85 131.42 32.86 136.12 28.16 136.12 28.16 140.81 18.78 140.81 18.78 145.51 9.39 145.51 9.39 150.2 0 150.2 0 140.81 9.39 140.81 9.39 136.12 14.08 136.12 14.08 131.43 23.47 131.43 23.47 126.73 32.86 126.73 32.85 122.04 37.55 122.04 37.55 112.65 42.24 112.65 42.24 103.26 46.94 103.27 46.94 98.57 51.63 98.57 51.63 93.87 56.33 93.88 56.33 84.49 61.02 84.49 61.02 79.79 65.72 79.8 65.71 75.1 75.1 75.1 75.1 70.41 98.57 70.41" fill="#7e7e7e"/>
  <polygon points="93.88 93.88 93.87 98.57 98.57 98.57 98.57 103.27 103.27 103.26 103.26 107.96 107.96 107.95 107.95 112.65 112.65 112.65 112.65 136.12 107.96 136.12 107.96 150.2 103.26 150.2 103.26 159.59 98.57 159.59 98.57 164.28 93.87 164.28 93.88 168.98 89.18 168.97 89.18 173.67 84.49 173.67 84.49 178.37 79.79 178.36 79.8 183.06 75.1 183.06 75.1 187.75 70.4 187.75 70.41 192.45 65.71 192.44 65.72 197.14 61.02 197.14 61.02 201.84 56.32 201.83 56.33 206.53 51.63 206.52 51.63 211.22 46.94 211.22 46.94 215.92 42.24 215.91 42.24 220.61 28.16 220.61 28.16 215.91 32.86 215.92 32.85 211.22 37.55 211.22 37.55 206.52 42.25 206.53 42.24 201.83 46.94 201.84 46.94 197.14 51.63 197.14 51.63 192.44 56.33 192.45 56.33 187.75 65.71 187.75 65.71 183.06 70.41 183.06 70.4 178.36 75.1 178.37 75.1 173.67 79.8 173.67 79.79 168.97 84.49 168.98 84.49 164.28 89.18 164.28 89.18 154.89 93.88 154.9 93.87 150.2 98.57 150.2 98.57 136.12 103.26 136.12 103.26 117.34 98.57 117.34 98.57 107.96 93.87 107.96 93.88 103.26 79.79 103.26 79.8 107.96 75.1 107.95 75.1 112.65 70.4 112.65 70.41 117.35 65.71 117.34 65.71 131.43 61.02 131.42 61.02 136.12 56.33 136.12 56.33 145.51 46.94 145.51 46.94 154.89 42.24 154.89 42.24 159.59 32.86 159.59 32.86 164.28 28.16 164.28 28.16 168.98 14.08 168.98 14.08 173.67 9.39 173.67 9.39 178.36 0 178.36 0 168.98 9.39 168.98 9.39 164.28 14.08 164.28 14.08 159.59 23.47 159.59 23.47 154.89 32.86 154.89 32.85 150.2 37.55 150.2 37.55 145.5 42.25 145.51 42.24 140.81 46.94 140.82 46.94 136.12 51.63 136.12 51.63 131.42 56.33 131.43 56.33 122.04 61.02 122.04 61.02 112.65 65.72 112.65 65.71 107.95 70.41 107.96 70.4 103.26 75.1 103.27 75.1 98.57 79.8 98.57 79.79 93.88 93.88 93.88" fill="#7e7e7e"/>
  <polygon points="103.26 28.16 103.26 32.86 117.34 32.86 117.34 37.55 126.73 37.55 126.73 42.24 136.12 42.24 136.12 46.94 140.82 46.94 140.81 51.63 145.51 51.63 145.5 56.33 150.2 56.32 150.2 61.02 154.9 61.02 154.89 65.72 159.59 65.71 159.59 75.1 164.28 75.1 164.28 79.8 168.98 79.79 168.98 93.88 173.67 93.88 173.67 107.96 178.36 107.96 178.36 159.59 173.67 159.59 173.67 168.98 164.28 168.98 164.28 150.2 168.98 150.2 168.98 112.65 164.28 112.65 164.28 89.18 159.59 89.18 159.59 79.79 154.89 79.79 154.89 70.41 150.2 70.41 150.2 65.71 145.5 65.72 145.51 61.02 140.81 61.02 140.82 56.32 136.12 56.33 136.12 51.63 131.42 51.63 131.43 46.94 117.34 46.94 117.34 42.24 107.96 42.24 107.96 37.55 98.57 37.55 98.57 32.86 75.1 32.86 75.1 37.55 61.02 37.55 61.02 42.24 51.63 42.24 51.63 46.94 46.94 46.94 46.94 51.63 37.55 51.63 37.55 56.33 32.85 56.32 32.86 61.02 28.16 61.02 28.17 65.72 23.47 65.71 23.47 75.1 18.77 75.1 18.78 79.8 14.08 79.79 14.08 89.18 4.69 89.18 4.69 79.79 9.39 79.8 9.39 75.1 14.08 75.1 14.08 65.71 18.78 65.72 18.77 61.02 23.47 61.02 23.47 56.32 28.17 56.33 28.16 51.63 32.86 51.63 32.85 46.94 37.55 46.94 37.55 42.24 46.94 42.24 46.94 37.55 56.33 37.55 56.33 32.86 70.41 32.86 70.41 28.16 103.26 28.16" fill="#7e7e7e"/>
  <polygon points="107.96 0 107.96 9.39 126.73 9.39 126.73 14.08 136.12 14.08 136.12 18.78 140.82 18.77 140.81 23.47 150.2 23.47 150.2 28.17 154.9 28.16 154.89 32.86 159.59 32.86 159.59 42.24 150.2 42.24 150.2 37.55 145.5 37.55 145.51 32.85 140.81 32.86 140.81 28.16 131.43 28.16 131.43 23.47 122.04 23.47 122.04 14.08 103.26 14.08 103.26 9.39 65.71 9.39 65.71 14.08 51.63 14.08 51.63 23.47 42.24 23.47 42.24 28.16 32.86 28.16 32.86 32.86 28.16 32.85 28.17 37.55 23.47 37.55 23.47 42.24 14.08 42.24 14.08 32.86 18.78 32.86 18.78 28.16 28.16 28.16 28.16 23.47 32.86 23.47 32.85 18.77 37.55 18.78 37.55 14.08 46.94 14.08 46.94 9.39 61.02 9.39 61.02 0 107.96 0" fill="#7e7e7e"/>
  <polygon points="89.18 122.04 89.18 136.12 84.49 136.12 84.49 145.51 79.79 145.5 79.8 150.2 75.1 150.2 75.1 154.9 70.4 154.89 70.41 159.59 65.71 159.59 65.72 164.28 61.02 164.28 61.02 173.67 51.63 173.67 51.63 178.37 46.94 178.36 46.94 183.06 42.24 183.06 42.24 187.75 32.86 187.75 32.86 192.45 28.16 192.44 28.17 197.14 23.47 197.14 23.47 201.83 14.08 201.83 14.08 192.45 18.78 192.45 18.78 187.75 28.16 187.75 28.16 183.06 32.86 183.06 32.85 178.36 37.55 178.37 37.55 173.67 46.94 173.67 46.94 168.97 51.63 168.98 51.63 164.28 56.33 164.28 56.32 159.59 61.02 159.59 61.02 154.89 65.72 154.9 65.71 150.2 70.41 150.2 70.41 140.81 75.1 140.82 75.1 136.12 79.8 136.12 79.79 131.42 84.49 131.43 84.49 122.04 89.18 122.04" fill="#7f7f7f"/>
  <polygon points="84.49 206.53 84.49 211.22 89.18 211.22 89.18 215.91 98.57 215.91 98.57 220.61 103.26 220.61 103.26 230 107.96 230 107.96 239.38 98.57 239.38 98.57 230 93.87 230 93.88 225.3 89.18 225.3 89.18 220.61 79.79 220.61 79.52 215.91 75.1 215.91 75.1 220.61 65.71 220.61 65.72 225.3 61.02 225.3 61.02 234.69 46.94 234.69 46.94 225.3 51.63 225.3 51.63 220.61 61.02 220.61 61.02 215.91 70.41 215.91 70.41 206.53 84.49 206.53" fill="#7f7f7f"/>
  <polygon points="107.96 178.36 107.96 183.06 103.26 183.06 103.26 192.45 107.96 192.45 107.96 201.83 112.65 201.83 112.65 206.53 117.34 206.53 117.34 215.91 126.73 215.91 126.73 220.61 136.12 220.61 136.12 225.3 122.04 225.3 122.04 220.61 112.65 220.61 112.65 215.91 107.96 215.91 107.96 206.53 103.26 206.53 103.26 197.14 98.57 197.14 98.57 178.36 107.96 178.36" fill="#7f7f7f"/>
  <polygon points="84.49 230 84.49 239.38 70.41 239.38 70.4 234.69 75.1 234.69 75.1 230 84.49 230" fill="#7f7f7f"/>
</svg>