<?xml version="1.0" encoding="UTF-8"?>
<svg id="_Слой_1" data-name="Слой_1" xmlns="http://www.w3.org/2000/svg" version="1.1" viewBox="0 0 559.2 120">
  <!-- Generator: Adobe Illustrator 29.8.1, SVG Export Plug-In . SVG Version: 2.1.1 Build 2)  -->
  <defs>
    <style>
      .st0 {
        fill: #fff;
      }
    </style>
  </defs>
  <polygon class="st0" points="499.2 0 499.2 40.8 559.2 40.8 559.2 50.4 499.2 50.4 499.2 100.8 489.6 100.8 489.6 110.4 480 110.4 480 120 458.4 120 458.4 110.4 470.4 110.4 470.4 100.8 480 100.8 480 88.8 489.6 88.8 489.6 50.4 439.2 50.4 439.2 40.8 489.6 40.8 489.6 0 499.2 0"/>
  <path class="st0" d="M350.4,0v28.8h48v72c-3.2,0-6.4,0-9.6,0,0,6.4,0,12.8,0,19.2h-38.4v-9.6h28.8v-9.6c3.2,0,6.4,0,9.6,0,.02-20-.01-40,0-60h-38.4v19.2c-4,0-8-.01-12,0,0,9.6,0,19.2,0,28.8-3.2,0-6.4-.01-9.6,0,0,4,0,8,0,12-3.2,0-6.4-.01-9.6,0-.01,3.2,0,6.4,0,9.6-3.2,0-6.4-.01-9.6,0,0,3.2,0,6.4,0,9.6h-9.6v-9.6c3.2,0,6.4,0,9.6,0,0-3.2,0-6.4,0-9.6,3.2,0,6.4.01,9.6,0,.01-4,0-8,0-12,3.2,0,6.4.01,9.6,0,.02-9.6-.01-19.2,0-28.8,3.2,0,6.4.01,9.6,0,0-6.4,0-12.8,0-19.2h-38.4v-12h38.4V0h12Z"/>
  <path class="st0" d="M60,0v28.8h50.4v60c-3.2,0-6.4-.01-9.6,0,0,10.4,0,20.8,0,31.2h-40.8v-9.6h28.8v-21.6c4,0,8,.01,12,0,.01-16,0-32,0-48h-40.8v9.6c-3.2,0-6.4,0-9.6,0-.01-3.2,0-6.4,0-9.6H9.6v-12h40.8V0h9.6Z"/>
  <path class="st0" d="M50.4,50.4c.03,9.6-.02,19.21,0,28.8-3.2,0-6.4-.01-9.6,0,.01-9.6,0-19.2,0-28.8,3.2,0,6.4.01,9.6,0Z"/>
  <path class="st0" d="M40.8,79.2c0,7.2,0,14.4,0,21.6-4,0-8-.01-12,0,.02-7.2-.02-14.41,0-21.6,4,0,8,.01,12,0Z"/>
  <path class="st0" d="M28.8,100.8c-.01,3.2,0,6.4,0,9.6-3.2,0-6.4-.01-9.6,0,0-3.2,0-6.4,0-9.6,3.2,0,6.4.01,9.6,0Z"/>
  <path class="st0" d="M19.2,110.4c0,3.2,0,6.4,0,9.6H0v-9.6c6.4-.02,12.8.02,19.2,0Z"/>
  <path class="st0" d="M208.8,0v9.6c-3.2,0-6.4-.01-9.6,0,0,3.2,0,6.4,0,9.6h50.4v31.2c-3.2,0-6.4,0-9.6,0,0,6.4,0,12.8,0,19.2-3.2,0-6.4-.01-9.6,0,.01,3.2,0,6.4,0,9.6h9.6v21.6h-9.6v-12h-9.6v12c-7.2.02-14.4-.02-21.6,0-.01,3.2,0,6.4,0,9.6-3.2,0-6.4-.01-9.6,0,0,3.2,0,6.4,0,9.6h-19.2v-9.6c6.4-.02,12.8.02,19.2,0,0-3.2,0-6.4,0-9.6,3.2,0,6.4.01,9.6,0,.01-4,0-8,0-12h9.6c-.02-6.4.02-12.8,0-19.2-6.4,0-12.8,0-19.2,0v-9.6h19.2c0,3.2-.01,6.4,0,9.6,7.2,0,14.4.02,21.6,0-.02-6.4.02-12.8,0-19.2,3.2,0,6.4.01,9.6,0,0-7.2,0-14.4,0-21.6-16.8.04-33.61-.05-50.4,0,0,4,0,8,0,12-3.2,0-6.4-.01-9.6,0-.01,3.2,0,6.4,0,9.6-3.2,0-6.4-.01-9.6,0,0,3.2,0,6.4,0,9.6-3.2,0-6.4-.01-9.6,0,0,3.2,0,6.4,0,9.6h-12v-9.6c4,0,8,.01,12,0,0-3.2,0-6.4,0-9.6,3.2,0,6.4.01,9.6,0,0-3.2,0-6.4,0-9.6,3.2,0,6.4.01,9.6,0,.01-4,0-8,0-12,3.2,0,6.4.01,9.6,0,.01-6.4,0-12.8,0-19.2,3.2,0,6.4.01,9.6,0,0-3.2,0-6.4,0-9.6h9.6Z"/>
</svg>