<?xml version="1.0" encoding="UTF-8"?>
<svg id="_Слой_2" xmlns="http://www.w3.org/2000/svg" version="1.1" viewBox="0 0 141.73 141.73">
  <!-- Generator: Adobe Illustrator 29.8.1, SVG Export Plug-In . SVG Version: 2.1.1 Build 2)  -->
  <path d="M16.48,96.39c-1.18,0-2.37,0-3.55,0v-.83s-1.67,0-1.67,0v-1.67h.83s0-.83,0-.83h.83s0-3.55,0-3.55h1.88v-2.5h1.67v-2.71h1.67v-.83h1.04v-.83s.83,0,.83,0v-.83s1.67,0,1.67,0v-1.04h.83s0-.83,0-.83h1.88v-.83s.84-.04.84-.04v-.79s-.84,0-.84,0v-.83s-1.88,0-1.88,0v-.83s-.83,0-.83,0v-1.04h-1.67v-.83h-1.88v-1.67h-.83s0-.83,0-.83h-.84s0-.83,0-.83h-1.67v-1.04h.83s0-.83,0-.83h.84s0-.83,0-.83h.84s0-.83,0-.83h.84s0-.83,0-.83h1.88v-.83h1.67v-1.04h.83s0-.83,0-.83h1.88v-.83s.84-.04.84-.04v-.79s-.84,0-.84,0v-.83s-1.88,0-1.88,0v-.83s-.83,0-.83,0v-1.04h-1.67v-.83s-.83,0-.83,0v-.83s-1.04,0-1.04,0v-.83s-.83,0-.83,0v-.84s-.83,0-.83,0v-1.88h-1.67v-2.5h-1.88v-4.38h-1.67v-.83s.83,0,.83,0v-.84s.83,0,.83,0v-.83s3.55,0,3.55,0v-1.04h2.71v-.83h13.77v-3.34h-.83v-3.55h-.83v-6.05h6.88v.83h2.71v1.67h3.34v-2.5h-.83v-11.27h.83v-4.38h1.04v-1.88h.83v-1.67h2.5v.83h2.71v.83h1.67v1.04h1.67v.83h1.04v.83s.83,0,.83,0v.83s1.67,0,1.67,0v1.67h.83v1.04h.83s0,.83,0,.83h1.04v.83s.83,0,.83,0v1.67h.83v1.88h1.67v-1.88h.83v-1.67h1.04v-.83s.83,0,.83,0v-.83s1.67,0,1.67,0v-2.71h.83s0-.83,0-.83h.84s0-.83,0-.83h1.04v.83s.83,0,.83,0v.84s.83,0,.83,0v2.71h1.67v.83s.83,0,.83,0v.83s1.04,0,1.04,0v1.67h.83s0,.83,0,.83h.83s0,1.04,0,1.04h.83v-1.88h.83v-1.67h.83s0-.83,0-.83h1.04v-.83s.83,0,.83,0v-1.04h.83v-1.67h1.67v-.83s.83,0,.83,0v-.83s1.04,0,1.04,0v-.83h1.67v-1.04h2.5v-.83h1.88v-.83h2.5v1.67h.83v1.88h1.04v4.38h.83v11.27h-.83v2.5h3.34v-1.67h2.71v-.83h6.88v6.05h-.83v3.55h-.83v3.34h13.77v.83h3.55v1.04h3.55v.83s.83,0,.83,0v1.67h-.83v2.71h-.83v1.67h-1.04v1.67h-.83s0,.83,0,.83h-.83s0,1.04,0,1.04h-.83v1.67h-1.67v.83h-1.04v.83s-.83,0-.83,0v.83s-1.67,0-1.67,0v1.04h-.83s0,.83,0,.83h-.84s0,.83,0,.83h-1.88v.83s.83,0,.83,0v.83s1.88,0,1.88,0v.83h1.67v1.04h.83s0,.83,0,.83h1.88v.83s.83,0,.83,0v.84s.83,0,.83,0v.84s.83,0,.83,0v.84s.83,0,.83,0v1.04h-.83s0,.83,0,.83h-.84s0,.83,0,.83h-1.67v1.67h-1.88v.83h-1.67v1.04h-.83s0,.83,0,.83h-1.88v.83s-.83,0-.83,0v.83h1.88v.83s.83,0,.83,0v.83s1.67,0,1.67,0v1.04h.83s0,.83,0,.83h.84s0,.83,0,.83h1.04v.83h1.67v.83s.83,0,.83,0v1.88h.83s0,.83,0,.83h.83s0,1.67,0,1.67h1.04v1.67h.83v2.71h.83v1.67h-.83s0,.83,0,.83h-3.55v1.04h-.83s0,.83,0,.83h-16.48v3.34h.83v3.55h.83v5.22h-6.88v-.83h-2.71v-.83h-3.34v1.67h.83v12.1h-.83v3.55h-1.04v2.71h-.83v1.67h-2.5v-.83h-1.88v-.83h-2.5v-1.88h-1.67v-.83h-1.04v-.83s-.83,0-.83,0v-.84s-.83,0-.83,0v-.83s-1.67,0-1.67,0v-1.04h-.83v-1.67h-1.88v-1.67h-.83v-1.88h-1.67v1.88h-.83v1.67h-1.04v.83s-.83,0-.83,0v.84s-.83,0-.83,0v1.04h-.83s0,.83,0,.83h-.84s0,.83,0,.83h-.84s0,.83,0,.83h-1.04v-.83s-.83,0-.83,0v-.84s-.83,0-.83,0v-.84s-.83,0-.83,0v-1.04h-.83s0-.83,0-.83h-.84s0-.83,0-.83h-1.04v-1.67h-.83v-1.88h-1.67v1.88h-.83v1.67h-.83s0,.83,0,.83h-1.04v.83s-.83,0-.83,0v1.04h-1.67v.83s-.83,0-.83,0v.84s-.83,0-.83,0v.83s-1.04,0-1.04,0v.83h-1.67v1.88h-2.5v.83h-1.88v.83h-2.5c0-.56,0-1.11,0-1.67.83.01,1.67,0,2.5,0v-1.88h1.88v-.83s.83,0,.83,0v-.83s2.5,0,2.5,0v-.83s.83,0,.83,0v-.83s1.04,0,1.04,0v-1.04h.83c0-.28,0-.56,0-.83.56,0,1.11,0,1.67,0v-.84s.83,0,.83,0v-.84s.83,0,.83,0v-.83s1.04,0,1.04,0v-1.88h.83s0-.83,0-.83h.83s0-2.5,0-2.5h-.83v-5.22h.83s0,.83,0,.83h.83s0,1.67,0,1.67h.83v2.71h.83v1.67h1.04v1.67h.83v1.88h.83v1.67h.83s0,.83,0,.83h.84s0,.83,0,.83h.83s0,1.88,0,1.88h1.04v-1.88h.83s0-.83,0-.83h.84s0-.83,0-.83h.83s0-1.67,0-1.67h.83v-1.88h.83v-1.67h1.04v-1.67h.83v-2.71h.83v-1.67h.83s0-.83,0-.83h.83v5.22h-.83v2.5h.83s0,.83,0,.83h.83s0,1.88,0,1.88h1.04v.83s.83,0,.83,0v.84s.83,0,.83,0v.84c.55,0,1.11,0,1.67,0,0,.28,0,.56,0,.83h.83s0,1.04,0,1.04h1.04v.83s.83,0,.83,0v.83s2.5,0,2.5,0v.83s.83,0,.83,0v.83s1.88,0,1.88,0v1.88h1.67v-3.55h.83v-2.71h.83v-5.22h-7.72v1.88h-.83s0,.83,0,.83h-.84s0,.83,0,.83c-.35,0-.7,0-1.04,0,.01-.83,0-1.67,0-2.5h1.04v-1.04h.83s0-.83,0-.83h-1.88c0-.28,0-.56,0-.83-.56,0-1.11,0-1.67,0v-.84s-.83,0-.83,0c0-.28,0-.56,0-.83-.28,0-.56,0-.83,0v-1.88h.83c0,.62,0,1.25,0,1.88.56,0,1.11,0,1.67,0v.84s.83,0,.83,0c0,.28,0,.56,0,.83.9,0,1.81,0,2.71,0v-.84s.83,0,.83,0v-.84s.83,0,.83,0v-3.55h.83v-5.22h-.83s0-.83,0-.83h-.83s0-1.67,0-1.67h1.67v.83h1.88v.83c.55,0,1.11,0,1.67,0,0,.28,0,.56,0,.83h2.71v-.83s.83,0,.83,0v-.84s.83,0,.83,0v-.84s.83,0,.83,0v-1.04h.83s0-.83,0-.83h.84s0-.83,0-.83h1.04v-1.67h1.67v-.83s.83,0,.83,0v-1.04h-.83s0-.83,0-.83h-.84s0-.83,0-.83c-.28,0-.56,0-.83,0,0-.83,0-1.67,0-2.5h-1.04v-1.04h-.83v-1.67h-.83s0-.83,0-.83h-1.67v-.83h-1.88c0-.62,0-1.25,0-1.88-.83,0-1.67,0-2.5,0v-.84c-.28,0-.56,0-.83,0,0-.28,0-.56,0-.83h-.84s0-.83,0-.83h-1.04v-.83c-.55,0-1.11,0-1.67,0,0-.28,0-.56,0-.83h-.83s0-1.04,0-1.04l-.84-.04v-.79s.84,0,.84,0v-1.67h.83v-2.71h1.67v1.04h5.22v-1.88h-1.67v.83h-1.67v-.83h-2.71v-2.5h.83s0-.83,0-.83h1.88c0-.35,0-.7,0-1.04.28,0,.56,0,.83,0v-.84s-.84,0-.84,0c0,.28,0,.56,0,.83-.62,0-1.25,0-1.88,0v-.84s-.83,0-.83,0v-2.5h2.71v-.83s.83,0,.83,0l.04.84h.79s0-.84,0-.84h1.67v.83h2.71v.83h2.5v.83h1.04v.83s.83,0,.83,0v.84c.55,0,1.11,0,1.67,0,0,.35,0,.7,0,1.04-.56,0-1.11,0-1.67,0v.84s-.83,0-.83,0v.83s-1.04,0-1.04,0v.83h-2.5v.83h-1.67v.83h1.67v1.04h.83v2.5c.28,0,.56,0,.83,0,0,.56,0,1.11,0,1.67.28,0,.56,0,.83,0,0,.35,0,.7,0,1.04h-.84s0,.83,0,.83h-.84s0,.83,0,.83h-.84s0,.83,0,.83h-1.67v.83h-1.04c0,.28,0,.56,0,.83.62,0,1.25,0,1.88,0v1.04h.83v-1.88h.83s0-.83,0-.83h.84s0-.83,0-.83h.83v1.67h1.04v-3.34h.83v-1.04h.83s0-.83,0-.83h2.5v.83h1.88v1.04h.83s0,.83,0,.83h.84s0,.83,0,.83h.83s0,1.67,0,1.67h.83s0,.83,0,.83h1.04v1.04h-1.88v.83h-4.38v.83h-4.17v.83s.83,0,.83,0v1.67h6.05v1.04h-4.38v.83h1.67v1.67h2.71v.83h5.22v.83h1.67v-6.88h-1.67v.83s-.83,0-.83,0v.83s-1.88,0-1.88,0c0,.35,0,.7,0,1.04.9.01,1.81,0,2.71,0v1.67h-.83s0,.83,0,.83h-.79s-.04-.83-.04-.83h-1.04c0-.56,0-1.11,0-1.67-.28,0-.56,0-.83,0v-1.04h-.83v-1.67h2.71v-.83h1.67v-.83s.83,0,.83,0v-1.88h-.83v-1.67h-.83s0-.83,0-.83h-.84c0-.55,0-1.11,0-1.67.28,0,.56,0,.83,0v.84s.83,0,.83,0v.84s.83,0,.83,0v1.67h.83v1.88h.83v-1.04h1.04v-.83s.83,0,.83,0v-.84s.83,0,.83,0v-1.67h-.83s0-.83,0-.83h-1.88v-1.04h-1.67v-.83s-.83,0-.83,0v-.83s-1.67,0-1.67,0v.83h-1.04c0,.28,0,.56,0,.83-.28,0-.56,0-.83,0v-.83s-1.67,0-1.67,0v-1.67h-.83s0-.83,0-.83h4.38v-.83s.83,0,.83,0v-1.04h.83v-9.39h-.83v-1.04h-.83s0-.83,0-.83h-3.55v-2.5h6.05v-.83h1.67v-1.04h1.04v-.83h1.67v-.83s.83,0,.83,0c0-.28,0-.56,0-.83.28,0,.56,0,.83,0v-1.67h1.88v-1.04h.83v-1.67h.83v-1.67h1.67v-1.88h.83s0-.83,0-.83h1.04v-2.5h-7.93v-.83h-2.5v4.17h.83v1.04h-1.88v2.5h1.04v1.67h.83c0,.35,0,.7,0,1.04-.62,0-1.25,0-1.88,0v-1.04h-.83v1.88h-.83v1.67h-.83s0,.83,0,.83h-.84s0,.83,0,.83h-.83s0,1.04,0,1.04h-1.88v-1.04h.83s0-.83,0-.83h1.04v-.83s.83,0,.83,0v-1.67h.83v-1.88h.83v-1.67h-.83s0-.83,0-.83h-1.67v-.83h-1.88v-.83h-7.72v.83h-2.71v-.83s.83,0,.83,0v-1.04h1.04v-1.67h.83v-1.67h.83s0-.83,0-.83h.83s0-1.04,0-1.04h-1.67v-.83s-.83,0-.83,0v-1.67h-1.04v-.83s-.83,0-.83,0v-.84s-.83,0-.83,0v-1.04h-.83s0-.83,0-.83h-.84s0-.83,0-.83h-.83s0-1.67,0-1.67h-1.04v.83h-1.67c0,.28,0,.56,0,.83.28,0,.56,0,.83,0v.84s.83,0,.83,0v1.88h1.04v.83s.83,0,.83,0v.84s.83,0,.83,0v1.67h1.67v1.88h1.88v1.67h-1.04v-.83h-1.67v-.83s-.83,0-.83,0v-1.04h-.83s0-.83,0-.83h-.83s0-1.67,0-1.67h-1.04v-.83s-.83,0-.83,0v-1.88h-.83c0-.55,0-1.11,0-1.67-.56,0-1.11,0-1.67,0v.83s-1.88,0-1.88,0v.83h-1.67v-1.67h.83s0-.83,0-.83h.83s0-6.05,0-6.05h-.83v-2.71h-.83s0-.83,0-.83h-4.38v.83c-.55,0-1.11,0-1.67,0,0,.28,0,.56,0,.83h-.84s0-.84,0-.84c.28,0,.56,0,.83,0,0-.28,0-.56,0-.83h.84s0-.83,0-.83h1.67v-.83h1.88v-.83s-.83,0-.83,0v-1.04h-1.04v-1.67h-.83v-1.67h-1.67v.83s-.83,0-.83,0v.84s-.83,0-.83,0v.83s-1.04,0-1.04,0v.83s-.83,0-.83,0v1.88h-.83v2.5h.83v5.22h-.83v-1.67h-.83v-1.67h-.83v-2.71h-.83v-1.67h-1.04v-1.88h-.83s0-.83,0-.83h-.83s0-1.67,0-1.67h-.83s0-.83,0-.83h-.83s0-1.88,0-1.88h-.83v-1.67h-1.04v1.67h-.83v1.88h-.83s0,.83,0,.83h-.83s0,1.67,0,1.67h-.83s0,.83,0,.83h-.83s0,1.88,0,1.88h-1.04v1.67h-.83v2.71h-.83v2.5h-.83s0,.83,0,.83h-.83v-5.22h.83v-2.5h-.83v-1.88h-.83s0-.83,0-.83h-1.04v-1.67h-1.67v-.83h-1.67v.83c-.28,0-.56,0-.83,0,0-.56,0-1.11,0-1.67h.83s0-1.04,0-1.04h-1.88v-1.67h-.83s0-.83,0-.83h-1.67v-.83h-1.67v-.83h-1.88v-1.04h-1.67v2.71h-.83v4.38h-.83v2.5h.83v1.88h6.05v-1.04h.83s0-.83,0-.83h.84s0-.83,0-.83h.84s0-.83,0-.83c.35,0,.7,0,1.04,0,0,.83,0,1.67,0,2.5h-1.04v1.04h-.83s0,.83,0,.83h1.88v.83h1.67v.83s.83,0,.83,0c0,.28,0,.56,0,.83.56,0,1.11,0,1.67,0v.83h-1.67c0-.28,0-.56,0-.83-.56,0-1.11,0-1.67,0v-.83s-4.38,0-4.38,0v.83s-.83,0-.83,0v2.71h-.83v6.05h.83s0,.83,0,.83h.83s0,1.67,0,1.67h-1.67v-.83h-1.04v-.83h-1.67v1.67h-.83v1.04h-.83s0,.83,0,.83h-.84s0,.83,0,.83h-1.04v1.67h-.83s0,.83,0,.83h-.83s0,1.04,0,1.04h-.83s0,.83,0,.83h-1.67v.83c-.35,0-.7,0-1.04,0,0-.56,0-1.11,0-1.67h1.88v-1.04h.83s0-.83,0-.83h.83s0-1.67,0-1.67h.83s0-.83,0-.83h.84s0-.83,0-.83h1.04v-1.88h1.67v-1.67h-1.67v-.83h-1.04v1.67h-.83s0,.83,0,.83h-.84s0,.83,0,.83h-.83s0,1.04,0,1.04h-.83s0,.83,0,.83h-.84s0,.83,0,.83h-1.04v1.67h-.83s0,.83,0,.83h-1.67v1.04h1.67v1.67c.28,0,.56,0,.83,0,0,.83,0,1.67,0,2.5h1.04v1.04h.83s0,.83,0,.83h-2.71v-.83h-7.72v.83h-1.88v.83h-1.67v.83s-.83,0-.83,0v1.67h.83v1.88h.83v1.67h.83s0,.83,0,.83h1.04v.83s.83,0,.83,0v1.04h-1.88v-1.04h-.83s0-.83,0-.83h-.84s0-.83,0-.83h-.83s0-1.67,0-1.67h-.83v-1.88h-.83v1.04c-.62,0-1.25,0-1.88,0,0-.35,0-.7,0-1.04h.83s0-1.67,0-1.67h1.04v-2.5h-1.88v-1.04h.83v-4.17h-2.5v.83h-6.88v2.5h.83c0-.56,0-1.11,0-1.67h.83v1.67c-.28,0-.56,0-.83,0,0,.63,0,1.25,0,1.88h.84s0,.83,0,.83h.83s0,1.67,0,1.67h.83v1.67h.83v1.04c1.46,0,2.92,0,4.38,0,0,.28,0,.56,0,.83h-.83s0,2.5,0,2.5h1.67v.83h1.04v1.04h1.67v.83h6.05v1.67h.83s0,.83,0,.83h-4.38v.83s-.83,0-.83,0c.01,1.74-.01,3.48,0,5.22-.28,0-.56,0-.83,0v4.38h.83v1.88h.83s0,.83,0,.83h3.55v2.5h-1.67v.83c-.28,0-.56,0-.83,0,0-.56,0-1.11,0-1.67h-2.71v.83s-.83,0-.83,0v.83s-1.67,0-1.67,0v1.04h-1.88v.83s-.83,0-.83,0v1.67h.83s0,.83,0,.83h.84s0,.83,0,.83h1.04v1.04h.83v-1.88h.83v-1.67h.83s0-.83,0-.83h.84s0-.83,0-.83c.28,0,.56,0,.83,0,0,.56,0,1.11,0,1.67h-.84s0,.83,0,.83h-.83s0,1.67,0,1.67h-.83v1.88h.83s0,.83,0,.83h1.67v.83h2.71v1.67h-3.55v-.83s-.83,0-.83,0v-.83s-1.67,0-1.67,0v6.88h1.67v-.83h5.22v-.83h2.71v-.83h1.67v-1.67h-4.38v-1.04h6.05v-1.67h.83s0-.83,0-.83h-4.17v-.83h-4.38v-.83h-1.88v-1.04h1.04v-.83s.83,0,.83,0v-1.67h.83s0-.83,0-.83h.84s0-.83,0-.83h.83s0-1.04,0-1.04h.83s0-.83,0-.83c1.18,0,2.37,0,3.55,0,0,.28,0,.56,0,.83h.83s0,1.04,0,1.04h.83v3.34h1.04v-1.67c.56,0,1.11,0,1.67,0,0,.56,0,1.11,0,1.67h.84c0,.28,0,.56,0,.83-.28,0-.56,0-.83,0v1.04h.83c0-.35,0-.7,0-1.04.56,0,1.11,0,1.67,0v1.04h1.04v.83h-1.88v.83h-1.67v.83s-.83,0-.83,0v1.67h-.83v1.04h-1.04v.83s-.83,0-.83,0v3.34h-1.67c0,.62,0,1.25,0,1.88-.28,0-.56,0-.83,0v2.5h-.83v1.88h-1.04v4.17h-.83v1.88h5.22v-.83h2.71v-1.04h1.67v-1.67h-.83s0-.83,0-.83h-.84s0-.83,0-.83h-.83s0-1.88,0-1.88h-1.04v-.83s-.83,0-.83,0v-.83s-1.67,0-1.67,0c0-.56,0-1.11,0-1.67.83-.01,1.67,0,2.5,0v1.67h1.04v.83s.83,0,.83,0v.84s.83,0,.83,0v1.04h.83s0,.83,0,.83h.84s0,.83,0,.83h.84s0,.83,0,.83h2.71v-.83s-.83,0-.83,0v-1.67h-.83v-1.04h-1.04v-.83s-.83,0-.83,0v-.84s-.83,0-.83,0c0-.56,0-1.11,0-1.67-.56,0-1.11,0-1.67,0,0-.62,0-1.25,0-1.88-.62,0-1.25,0-1.88,0v-1.67h1.04v.83s.83,0,.83,0c0,.28,0,.56,0,.83.56,0,1.11,0,1.67,0,0,.63,0,1.25,0,1.88.56,0,1.11,0,1.67,0v1.67h1.04v.83h1.67v1.88h.83v1.67h1.67v-.83h1.04v-.83h1.67v1.67h-.83s0,.83,0,.83h-.83s0,5.22,0,5.22h.83v1.67h.83v2.71h.83s0,.83,0,.83c.9,0,1.81,0,2.71,0,0-.28,0-.56,0-.83h.84s0-.83,0-.83c.56,0,1.11,0,1.67,0,0-.62,0-1.25,0-1.88h.83v1.04h.83s0,.83,0,.83c-.56,0-1.11,0-1.67,0,0,.28,0,.56,0,.83h-.84s0,.83,0,.83c-.56,0-1.11,0-1.67,0,0,.28,0,.56,0,.83h-1.88v.83s.83,0,.83,0v1.04h1.04c0,.83-.01,1.67,0,2.5-.35,0-.7,0-1.04,0v-1.67h-.83s0-.83,0-.83h-.83s0-1.04,0-1.04h-6.88v1.88h-.83s0,.83,0,.83l.84.04v.79s-.84,0-.84,0v1.67h.83c0,2.08,0,4.17,0,6.26-.28,0-.56,0-.83,0v-2.71h-1.04v-3.55h-.83v-12.1h.83v-1.67h-3.34v.83h-2.71v.83h-6.88v-5.22h.83v-3.55h.83v-3.34h-16.48c0-.62,0-1.25,0-1.88,2.29,0,4.59,0,6.88,0v-5.22h1.04v-3.34h-1.04v-.83s-.83,0-.83,0v-1.04h-.83s0-.83,0-.83h-.84s0-.83,0-.83h-.79s-.04.84-.04.84h-.84s0,.83,0,.83h-1.04v1.04h-.83v1.67h-.83s0,.83,0,.83h-.83s0,1.67,0,1.67h-.83v1.88h.83s0,.83,0,.83h-1.67v1.67h2.5c0,.28,0,.56,0,.83ZM94.72,12.94h-1.67v1.04h-1.88v.83h-2.5v.83s-.83,0-.83,0v.84s-.83,0-.83,0v.83s-1.04,0-1.04,0v.83s-.83,0-.83,0v1.04h.83v1.67h1.04v.83h1.67v1.67h.83v1.04h6.88v-5.22h-.83v-3.55h-.83v-2.71ZM51.32,25.24h-5.22v6.88h.83v1.67h1.67v1.88h.83v-6.05h1.04v-2.71h.83v-1.67ZM95.55,25.24h-5.22v1.67h1.88v8.76h.83v-1.88h1.67v-2.5h.83v-6.05ZM96.39,32.13h-.84v.84h.84v-.84ZM38.18,32.96h-5.22v1.88h.83v4.17h1.04v1.88h.83v2.5h.83v-1.67h1.67v-.83s.83,0,.83,0v-.83s1.04,0,1.04,0v-1.04h.83s0-.83,0-.83h.83s0-1.67,0-1.67h.83s0-.83,0-.83h.84s0-.83,0-.83h-1.67v-1.04h-3.55v-.83ZM108.7,32.96h-5.22v.83h-3.55v1.04h-1.67v.83s.83,0,.83,0v.84s.83,0,.83,0v1.67h.83s0,.83,0,.83h.83s0,1.04,0,1.04h1.04v.83s.83,0,.83,0v.83s1.67,0,1.67,0v1.67h.83v-2.5h.83v-1.88h1.04v-4.17h.83v-1.88ZM112.03,49.45c0,.35,0,.7,0,1.04h2.71v.83h1.67v-6.05h-.83s0,.83,0,.83h-6.05v.83h-1.67v.83h-2.71v1.67c2.29,0,4.59,0,6.88,0,0-.83,0-1.67,0-2.5h2.71v2.5c-.9,0-1.81,0-2.71,0ZM29.63,49.45c2.29,0,4.59,0,6.88,0v-1.67h-2.71v-.83h-1.67v-.83h-6.88v5.22h1.67v-.83h2.71c0-.35,0-.7,0-1.04-.9,0-1.81,0-2.71,0v-2.5h2.71c0,.83,0,1.67,0,2.5ZM116.42,65.09h-.83v11.47h.83v-1.04h1.88v-.83h1.67v-.83h1.67v-.83s.83,0,.83,0v-.83s1.04,0,1.04,0v-.83s.83,0,.83,0v-1.04h-.83s0-.83,0-.83h-1.04v-.83s-.83,0-.83,0v-.83s-1.67,0-1.67,0v-.83h-1.67v-.83h-1.88v-1.04ZM26.08,66.14h-2.71v.83h-1.67v.83s-.83,0-.83,0v.84s-.83,0-.83,0v.84s-.83,0-.83,0v.83s-1.88,0-1.88,0v1.04h1.88v1.67h1.67v.83s.83,0,.83,0v.83s1.67,0,1.67,0v.83h1.88v1.04h.83v-10.43ZM95.55,70.31h-.83v1.04h.83v-1.04ZM98.27,70.31h-1.88v1.04h1.88v-1.04ZM99.93,70.31h-.83v1.04h.83v-1.04ZM102.65,70.31h-1.04v1.04h1.04v-1.04ZM96.39,78.24h-1.67v.83h-1.67v1.67h-.83v1.04h.83v1.67h3.34v-.83h1.04v.83s.83,0,.83,0v-1.67h-.83v-2.71h-1.04v-.83ZM99.1,78.24h-.84v.84h.84v-.84ZM91.17,79.91h-.84v.84h.84v-.84ZM32.96,82.62v1.67h.83s0,.79,0,.79l-.84.04v1.88h.83v-1.04h1.88v1.04h.83v-1.88h-1.67v-.83h1.67v-1.67h-.83s0,.83,0,.83h-1.88v-.83s-.83,0-.83,0ZM105.15,82.62v1.67h3.55v-1.67h-1.88l-.04.84h-.79s0-.84,0-.84h-.83ZM119.13,85.96v1.04h-.83s0,.83,0,.83h-1.04v3.34h1.04v5.22h6.05v-.83h4.38v-1.67h-1.04v-1.67h-.83v-1.88h-.83s0-.83,0-.83h-.83s0-1.67,0-1.67h-.83s0-.83,0-.83h-.83s0-1.04,0-1.04h-1.04v-.83s-.83,0-.83,0v-.84s-.79,0-.79,0l-.04.84h-.84s0,.83,0,.83h-.83ZM108.7,85.12h-3.55v1.88h.83v-1.04h1.88v1.04h.83v-1.88ZM102.65,85.96h-1.04v1.04h1.04v-1.04ZM105.98,98.27h-.83v1.67h-1.67v.83s-.83,0-.83,0v.83s-1.04,0-1.04,0v1.04h-.83v1.67h-.83s0,.83,0,.83h-.83s0,1.67,0,1.67h2.5v1.04h1.88v.83h5.22v-1.88h-.83v-4.17h-1.04v-1.88h-.83v-2.5ZM49.45,105.98h-.83v1.88h-1.67v2.5h-.83v6.05h5.22v-1.67h-.83v-3.55h-1.04v-5.22ZM93.05,106.82h-.83v7.93h-1.88v1.67h5.22v-6.05h-.83v-2.5h-1.67v-1.04ZM52.99,57.37c.28,0,.56,0,.83,0,0-.28,0-.56,0-.83-.28,0-.56,0-.83,0,0,.28,0,.56,0,.83ZM88.67,82.62v1.67c.28,0,.56,0,.83,0,0-.55,0-1.11,0-1.67-.28,0-.56,0-.83,0ZM64.26,38.18c0-2.02,0-4.03,0-6.05h.83s0-2.5,0-2.5h1.04v-1.88h.83v-2.5h.83v-1.88h.83s0-.83,0-.83h.84s0-.83,0-.83h.83s0-1.67,0-1.67h1.04v1.67h.83s0,.83,0,.83h.84s0,.83,0,.83h.83s0,1.88,0,1.88h.83v2.5h.83v1.88h1.04v2.5h.83v1.67h.83c0,.9-.01,1.81,0,2.71.56,0,1.11,0,1.67,0,0-.56,0-1.11,0-1.67h.83s0-1.04,0-1.04h1.04v-.83s.83,0,.83,0v-.83s1.67,0,1.67,0v-1.67h2.71v1.67h.83v2.71h.83v5.22h-1.67v-1.04c-.35,0-.7,0-1.04,0,0-.28,0-.56,0-.83-.28,0-.56,0-.83,0,0-.28,0-.56,0-.83-.56,0-1.11,0-1.67,0,0-.28,0-.56,0-.83.28,0,.56,0,.83,0v-.84s.79,0,.79,0l.04.84h.83v-1.67h1.04v-1.04h-1.04v-.83s-.83,0-.83,0l-.04.84h-.79s0-.84,0-.84h-.84c0,1.18,0,2.37,0,3.55-1.18.01-2.37,0-3.55,0,0,.28,0,.56,0,.83h-1.67c0-.28,0-.56,0-.83-.28,0-.56,0-.83,0v1.67h-.83s0,.83,0,.83h-1.88v1.04h-.83v-1.04h-.83s0-.83,0-.83h-.84s0-.83,0-.83h-1.88c0,.28,0,.56,0,.83.35,0,.7,0,1.04,0v.84s.83,0,.83,0v1.04h.83v1.67h.83v3.55h.83v1.67l-.84.04v.79s.84,0,.84,0v3.55h-1.67v-.83h-1.67v-6.26h-1.04v6.26h-1.67v.83h-1.67v-6.05h.83v-3.55h.83v-1.67h.83v-1.04h.83c0-.28,0-.56,0-.83-.56,0-1.11,0-1.67,0v.84s-.83,0-.83,0v1.04h-.83v-1.04h-.83s0-.83,0-.83c-.63,0-1.25,0-1.88,0,0,.63,0,1.25,0,1.88h.83s0,3.34,0,3.34h1.04v2.71h-1.04v6.05h-1.67v.83h-2.5v.83c-.35,0-.7,0-1.04,0,0,.62,0,1.25,0,1.88h-1.67v.83h-1.67v.83s-.83,0-.83,0v2.5h-1.04v-.83s-.83,0-.83,0c0-.56,0-1.11,0-1.67.28,0,.56,0,.83,0v-1.67h-1.67c0,.28,0,.56,0,.83-.28,0-.56,0-.83,0,0,.28,0,.56,0,.83-.56,0-1.11,0-1.67,0v-.83s-1.04,0-1.04,0v-.83s-.83,0-.83,0v-1.04h-.83s0-.83,0-.83h-.84s0-.83,0-.83c-.28,0-.56,0-.83,0,.01-.83,0-1.67,0-2.5h-.83s0-2.71,0-2.71h-1.04v-2.5h5.22v.83h1.88c0,.28,0,.56,0,.83-.28,0-.56,0-.83,0v.84s.84,0,.84,0v-.83c.83-.01,1.67,0,2.5,0v.84s.83,0,.83,0v1.67h1.88v1.04h.83v1.67l-.84.04v.79s.84,0,.84,0v.83c-.9,0-1.81,0-2.71,0v.83h2.71c0-.28,0-.56,0-.83.83,0,1.67,0,2.5,0,0-.56,0-1.11,0-1.67h-.83s0-1.67,0-1.67h-.83v-1.04h-.83s0-.83,0-.83h-.84s0-.83,0-.83h-.84s0-.83,0-.83h-1.04v-2.71h-.83v-1.67l.84-.04v-.79s-.84,0-.84,0v-.83h1.88v-.83h-2.71v-4.38h.83v-3.55h.83v-1.67h2.71v.83s.83,0,.83,0v1.67h1.67v.83h1.04v1.04h.83c0,.55,0,1.11,0,1.67-.9,0-1.81,0-2.71,0v.83h2.71c0-.28,0-.56,0-.83.56,0,1.11,0,1.67,0v.84s-.84,0-.84,0v.84c.56,0,1.11,0,1.67,0ZM70.31,26.91c0-.28,0-.56,0-.83h-.84s0,.84,0,.84c.28,0,.56,0,.83,0,0,.28,0,.56,0,.83-.28,0-.56,0-.83,0v.84s.84,0,.84,0c0-.28,0-.56,0-.83.35,0,.7,0,1.04,0,0,.28,0,.56,0,.83h.84s0-.84,0-.84c-.28,0-.56,0-.83,0,0-.28,0-.56,0-.83.28,0,.56,0,.83,0v-.84s-.84,0-.84,0c0,.28,0,.56,0,.83-.35,0-.7,0-1.04,0ZM68.64,28.58h-.83v1.04h.83v-1.04ZM73.86,28.58h-.83v1.04h.83v-1.04ZM73.02,30.46h-3.55v.83s-.83,0-.83,0v.84s-.83,0-.83,0v3.55h.83s0,.83,0,.83h4.38v-.83s.83,0,.83,0v-3.55h-.83v-1.67ZM55.7,33.8c-.35,0-.7,0-1.04,0v1.04h1.04c0-.35,0-.7,0-1.04.28,0,.56,0,.83,0,0,.62,0,1.25,0,1.88h.84s0-.84,0-.84h.83s0-1.04,0-1.04c-.56,0-1.11,0-1.67,0,0-.28,0-.56,0-.83h-.79c-.07.01-.04.7-.04.83ZM56.54,38.18c-.28,0-.56,0-.83,0v.79c.01.07.7.04.83.04,0,.35,0,.7,0,1.04h.83v-1.04c-.28,0-.56,0-.83,0,0-.28,0-.56,0-.83.28,0,.56,0,.83,0v-.84s-.84,0-.84,0c0,.28,0,.56,0,.83ZM61.75,38.18h-3.55v.83h3.55v-.83ZM59.88,40.06h-.84v.84h.84v-.84ZM60.92,40.89v1.67h.83s0,.83,0,.83h.84s0,.83,0,.83h.84s0-.84,0-.84h.83s0-1.67,0-1.67h-.83s0-.83,0-.83h-.84s0-.83,0-.83h-.84v.84s-.83,0-.83,0ZM71.35,40.06h-1.04v1.67h1.04v-1.67ZM58.21,41.73h-1.67v1.67h-.83v1.88h.83s0,.83,0,.83h1.67v-.83s.83,0,.83,0v-2.71h-.83s0-.83,0-.83ZM46.11,46.11v2.5h2.5v-1.67h-1.67v-.83s-.83,0-.83,0ZM64.26,46.11h-2.5v.83h-1.88v.83s-.83,0-.83,0v1.67h4.38v-1.67h.83v-1.67ZM50.49,48.61h-1.04v.83h1.04v-.83ZM68.64,48.61h-.84v.84h.84v-.84ZM73.86,48.61h-.84v.84h.84v-.84ZM48.61,49.45h-1.67v1.04h1.67v-1.04ZM52.99,49.45h-1.67v1.04h-1.88v2.5h1.04v1.67h2.5v-.83s.83,0,.83,0v-.84s.83,0,.83,0v-2.5h-1.67v-1.04ZM52.16,57.37c0,.55,0,1.11,0,1.67.28,0,.56,0,.83,0,0-.56,0-1.11,0-1.67-.28,0-.56,0-.83,0ZM89.5,84.29c.56,0,1.11,0,1.67,0v.84c.62,0,1.25,0,1.88,0,0,.62,0,1.25,0,1.88h.84s0,.83,0,.83h.84s0,.83,0,.83h.83s0,2.5,0,2.5h.83v2.71h1.04v2.5h-5.22v-.83h-1.88c0-.28,0-.56,0-.83.28,0,.56,0,.83,0v-.84s-.84,0-.84,0v.83c-.83.01-1.67,0-2.5,0v-1.67h-.83s0-.83,0-.83h-1.88v-1.04h-.83c0-.55,0-1.11,0-1.67h.83c0-.28,0-.56,0-.83.28,0,.56,0,.83,0v-.84c.35,0,.7,0,1.04,0,0,1.11,0,2.23,0,3.34h1.67v1.04h2.5v-1.04h1.04v-3.34h-1.04v-.83h-2.5v.83c-.56,0-1.11,0-1.67,0,0-.28,0-.56,0-.83.28,0,.56,0,.83,0v-1.04h1.67c0-.56,0-1.11,0-1.67ZM94.72,91.17h-1.67v1.04h1.67v-1.04ZM94.72,93.05h-1.67v1.67h1.67v.83h1.67v-.83s-.83,0-.83,0v-.84s-.83,0-.83,0v-.83ZM84.29,88.67c.28,0,.56,0,.83,0,0-.56,0-1.11,0-1.67.62,0,1.25,0,1.88,0,0-.63,0-1.25,0-1.88h.83s0-2.5,0-2.5h-1.88v1.67h-.83s0,.83,0,.83h-1.67v.83s-.83,0-.83,0v1.88h.83v1.67c.28,0,.56,0,.83,0,0-.28,0-.56,0-.83ZM39.01,61.76c-.56,0-1.11,0-1.67,0,0,.28,0,.56,0,.83h.83s0,1.67,0,1.67h1.88v.83s.83,0,.83,0c0-.56,0-1.11,0-1.67-.28,0-.56,0-.83,0v-2.5c-.35,0-.7,0-1.04,0,0,.28,0,.56,0,.83ZM112.03,81.78c.35,0,.7,0,1.04,0,0-.35,0-.7,0-1.04-.35,0-.7,0-1.04,0,0,.35,0,.7,0,1.04ZM28.58,80.74c0,.35,0,.7,0,1.04.35,0,.7,0,1.04,0,0-.35,0-.7,0-1.04-.35,0-.7,0-1.04,0ZM80.74,37.34v.79c.9.08,1.81.04,2.71.04,0-.28,0-.56,0-.83-.9,0-1.81,0-2.71,0ZM85.96,39.01c0,.62,0,1.25,0,1.88h1.88v.83s-.83,0-.83,0v.79s.83.04.83.04v3.55h-.83s0,.83,0,.83h-1.04v.83s-.83,0-.83,0v1.67h-1.67v1.04h-.83v2.5h-.83s0,.83,0,.83h-1.04v-.83h-3.34v-.83s-.83,0-.83,0v-6.05h-1.04v-2.71h1.04v-3.34h.83v-1.04h.83s0-.83,0-.83h1.67v.83h3.55c0-.28,0-.56,0-.83.56,0,1.11,0,1.67,0,0,.28,0,.56,0,.83-.28,0-.56,0-.83,0v1.04h.83c0-.35,0-.7,0-1.04.28,0,.56,0,.83,0ZM79.91,40.06h-1.67v1.67h-.83v1.67h.83s0,.83,0,.83h.84v-.84s.83,0,.83,0v-.84s.83,0,.83,0v-1.67h-.83s0-.83,0-.83ZM82.62,40.06h-.84v.84h.84v-.84ZM85.12,41.73h-1.67v.83s-.83,0-.83,0v2.71h.83s0,.83,0,.83h2.5v-2.71h-.83v-1.67ZM79.91,46.11h-2.5v1.67h.83v1.67h4.38v-1.67h-.83s0-.83,0-.83h-1.88v-.83ZM37.34,61.75c-1.18,0-2.37,0-3.55,0v-.84s-.83,0-.83,0v-1.04h-.83s0-.83,0-.83h-.83s0-1.67,0-1.67h-.83s0-.83,0-.83h-.84s0-.83,0-.83h-1.04v-1.88h2.71v-.83h7.72v-.83h3.55v.83c1.18.01,2.37-.01,3.55,0,0,.28,0,.56,0,.83h-.84s0,.83,0,.83h-1.88v1.88h-.83c0,.28,0,.56,0,.83-.28,0-.56,0-.83,0,0,.28,0,.56,0,.83-.56,0-1.11,0-1.67,0v-1.67h-1.04v2.5h1.04v.83h-1.04c0,.35,0,.7,0,1.04-.56,0-1.11,0-1.67,0,0,.28,0,.56,0,.83ZM33.8,54.66h-.83v1.88h.83s0,.79,0,.79l-.84.04v1.67h.83s0-.83,0-.83h1.88v.83s.83,0,.83,0v-1.67h-1.67v-.83h1.67v-1.88h-.83v1.04h-1.88v-1.04ZM39.01,54.66h-.83v1.04h.83v-1.04ZM42.56,54.66h-.83v1.04h.83v-1.04ZM39.01,79.91v.83s1.04,0,1.04,0v-1.67c.28,0,.56,0,.83,0,0-.83,0-1.67,0-2.5h-.84s0,.83,0,.83h-1.04v.83s-.83,0-.83,0v.84s-.83,0-.83,0c0,.28,0,.56,0,.83.56,0,1.11,0,1.67,0ZM101.6,79.07c0,.56,0,1.11,0,1.67.35,0,.7,0,1.04,0v-.84s.83,0,.83,0v-.84s.83,0,.83,0v-.83h-1.67v-.83h-1.04v-.83s-.83,0-.83,0c0,.83,0,1.67,0,2.5.28,0,.56,0,.83,0ZM105.98,70.31v1.04c-.28,0-.56,0-.83,0,0,.28,0,.56,0,.83h-.84s0,.83,0,.83h-.84s0,.83,0,.83h-.83s0,1.67,0,1.67h3.34v1.04h-.83s0,.83,0,.83h1.67v-.83h1.88v-1.88h1.67v-1.67h1.67v-.83h1.04v-.83s.83,0,.83,0v-1.04h-.83s0-.83,0-.83h-1.04v-.83s-.83,0-.83,0v-.84s-.83,0-.83,0v-.84s-.83,0-.83,0v-.84s-.83,0-.83,0v-1.04h-.83v1.04h-1.04v-1.88h-1.67v.83s.83,0,.83,0v1.04h-3.34v1.67h.83s0,.83,0,.83h.84s0,.83,0,.83h.84c0,.28,0,.56,0,.83.28,0,.56,0,.83,0ZM97.43,98.27v1.67h-1.04v.83s-.83,0-.83,0v1.88h-.83c0,.55,0,1.11,0,1.67.28,0,.56,0,.83,0v-.84s.83,0,.83,0v-1.88h1.04v-.83s.83,0,.83,0v-.84s.83,0,.83,0c0-.56,0-1.11,0-1.67-.56,0-1.11,0-1.67,0ZM99.1,96.39c0,.63,0,1.25,0,1.88.56,0,1.11,0,1.67,0,0-.62,0-1.25,0-1.88-.56,0-1.11,0-1.67,0ZM42.56,57.37c.56,0,1.11,0,1.67,0v-.83s1.04,0,1.04,0v-.83h2.5v.83s.83,0,.83,0v.84s.83,0,.83,0v.83s1.04,0,1.04,0v.83c.55,0,1.11,0,1.67,0,0,.28,0,.56,0,.83h.83s0,1.04,0,1.04l.84.04v.79s-.84,0-.84,0v1.67h-.83v2.71c-.56,0-1.11,0-1.67,0,0,.28,0,.56,0,.83h.83s0,2.5,0,2.5h-.83s0,.83,0,.83c-.63,0-1.25,0-1.88,0,0-.28,0-.56,0-.83h-1.67c0,.28,0,.56,0,.83-.28,0-.56,0-.83,0v1.04h.83c0-.35,0-.7,0-1.04.56,0,1.11,0,1.67,0,0,.35,0,.7,0,1.04h1.88v.83s.83,0,.83,0v2.5h-2.71l-.04.84h-.79s0-.84,0-.84h-2.5v1.88h5.22v-1.04h1.67v2.71h.83v1.67h.83s0,.79,0,.79l-.84.04v1.04h-.83s0,.83,0,.83h-1.67v.83h-1.04v.83s-.83,0-.83,0v.84c-.28,0-.56,0-.83,0v-.83s-.83,0-.83,0v.84c.28,0,.56,0,.83,0,0,.28,0,.56,0,.83h-2.5v-.83h-1.04v-.83h-1.67v-.83c-.28,0-.56,0-.83,0,0-.28,0-.56,0-.83h-.84c0-1.18,0-2.37,0-3.55.28,0,.56,0,.83,0v-2.5h.83v-1.04h1.67v-.83h-1.67v-.83h-1.67v-.83s-.83,0-.83,0v-.84c-.62,0-1.25,0-1.88,0,0-.28,0-.56,0-.83h-.83s0-1.04,0-1.04h.83s0-.83,0-.83h1.88v-.83s.83,0,.83,0v-.83s1.67,0,1.67,0v-.83h6.05v-.83c.62,0,1.25,0,1.88,0,0-.35,0-.7,0-1.04h-5.22v1.04h-3.55v-2.71c-.28,0-.56,0-.83,0,0-1.46,0-2.92,0-4.38h.84c0-.28,0-.56,0-.83.28,0,.56,0,.83,0,0-.28,0-.56,0-.83ZM44.23,62.59c.63,0,1.25,0,1.88,0v.84s.79,0,.79,0l.04-.84h1.67v-.83s.83,0,.83,0v-2.71h-.83s0-.83,0-.83h-3.34v.83h-1.88v.83s.83,0,.83,0c0,.9,0,1.81,0,2.71-.56,0-1.11,0-1.67,0v.84s.84,0,.84,0v.84s.83,0,.83,0c0-.56,0-1.11,0-1.67ZM51.32,60.92h-.84v.84h.84v-.84ZM51.32,62.59h-.83s0,.83,0,.83h-1.04v.83h1.88v-1.67ZM40.06,70.31h-1.04v1.04h1.04v-1.04ZM42.56,70.31h-.83v1.04h.83v-1.04ZM44.23,70.31h-.83v1.04h.83v-1.04ZM43.4,78.24h-.84v.84h.84v-.84ZM46.94,78.24h-1.67v.83h-1.04v2.71h-.83s0,.83,0,.83h1.88v.83h3.34v-.83s.83,0,.83,0v-2.71h-.83s0-.83,0-.83h-1.67v-.83ZM51.32,78.24h-.84v.84h.84v-.84ZM51.32,79.91h-.84v.84h.84v-.84ZM85.12,120.8c0,.28,0,.56,0,.83.28,0,.56,0,.83,0,0-.28,0-.56,0-.83-.28,0-.56,0-.83,0ZM101.6,94.72v.84s-.83,0-.83,0c0,.28,0,.56,0,.83.63,0,1.25,0,1.88,0,0-.56,0-1.11,0-1.67-.35,0-.7,0-1.04,0ZM55.7,121.63c.28,0,.56,0,.83,0,0-.28,0-.56,0-.83-.28,0-.56,0-.83,0,0,.28,0,.56,0,.83ZM119.13,56.54h.84s0,.83,0,.83c.28,0,.56,0,.83,0,0-.56,0-1.11,0-1.67-.56,0-1.11,0-1.67,0,0,.28,0,.56,0,.83ZM27.75,71.35h.84s0,.83,0,.83h1.04v.83h1.67v1.67h1.67v1.88h1.88v.83h1.67v-.83s-.83,0-.83,0v-1.04h1.67v1.04h.83v-1.04h.83s0-.83,0-.83h1.04v-.83h-1.04v-.83s-.83,0-.83,0c0-.28,0-.56,0-.83-.56,0-1.11,0-1.67,0v-.84s-.83,0-.83,0v-1.04h.83s0-.83,0-.83h.84s0-.83,0-.83h.84s0-.83,0-.83h1.88v-.83h-1.04v-.83s-.83,0-.83,0v-1.04h-1.67v1.04h-.83v-1.88h-.83s0,.83,0,.83h-1.88v1.04h-.83s0,.83,0,.83h-.84s0,.83,0,.83h-.84s0,.83,0,.83h-.84s0,.83,0,.83h-1.04v.83c-.28,0-.56,0-.83,0,0,.35,0,.7,0,1.04ZM71.35,53.83l.04-.84h.79s0,.84,0,.84h2.5v.83h2.71v1.04h2.5v.83h1.88v.83s.83,0,.83,0v.84s.83,0,.83,0v.84s.83,0,.83,0v.84s.83,0,.83,0v1.04h.83v3.34h1.04v2.71h.83v7.72h-.83v2.71h-1.04v3.34h-.83v1.04h-.83s0,.83,0,.83h-.84s0,.83,0,.83h-.84s0,.83,0,.83h-.84s0,.83,0,.83h-1.88v.83h-2.5v1.04h-2.71v.83h-7.72v-.83h-2.71v-1.04h-2.5v-.83h-1.88v-.83s-.83,0-.83,0v-.84s-.83,0-.83,0v-.84s-.83,0-.83,0v-.84s-.83,0-.83,0v-1.04h-.83v-3.34h-1.04v-2.71h-.83v-7.72h.83v-2.71h1.04v-3.34h.83v-1.04h.83s0-.83,0-.83h.84s0-.83,0-.83h.84s0-.83,0-.83h.84s0-.83,0-.83h1.88v-.83h2.5v-1.04h2.71v-.83h4.38ZM73.86,57.37h-6.05v.83h-2.71v.83h-1.67v.83s-.83,0-.83,0v1.04h-.83s0,.83,0,.83h-.83s0,1.67,0,1.67h-1.88v1.67h-.83v2.71h-.83v6.05h.83v2.71h.83v1.67h.83s0,.83,0,.83h1.04v.83s.83,0,.83,0v.84s.83,0,.83,0v1.04h.83s0,.83,0,.83h1.67v.83h2.71v.83h6.05v-.83h2.71v-.83h1.67v-.83s.83,0,.83,0v-1.04h1.67v-1.67h1.04v-.83s.83,0,.83,0v-1.67h.83v-2.71h.83v-6.05h-.83v-2.71h-.83v-1.67h-1.88v-1.67h-.83s0-.83,0-.83h-.83s0-1.04,0-1.04h-.83s0-.83,0-.83h-1.67v-.83h-2.71v-.83ZM53.83,100.77c0-.28,0-.56,0-.83h.84s0-.79,0-.79l-.84-.04v-3.55h.83s0-.83,0-.83h1.04v-.83s.83,0,.83,0v-.84s.83,0,.83,0v-.84s.83,0,.83,0v-1.04h.83v-1.67h.83v-1.67h2.71v.83h2.5v6.88h1.04v2.71h-1.04v3.34h-.83v1.04c-1.74.02-3.48-.02-5.22,0,0-.35,0-.7,0-1.04.28,0,.56,0,.83,0v-.84s-.84,0-.84,0c0,.28,0,.56,0,.83-.56,0-1.11,0-1.67,0,0,.63,0,1.25,0,1.88-.18,0-1.66-.04-1.67.04v.79c.56,0,1.11,0,1.67,0,0,.28,0,.56,0,.83.83,0,1.67,0,2.5,0,0,.28,0,.56,0,.83h1.88v1.88h-.83s0,.83,0,.83h-1.88v.83s-.83,0-.83,0v.83s-2.5,0-2.5,0v.83h-1.04v-1.67h-.83v-3.55h-.83v-5.22c.28,0,.56,0,.83,0,0,.28,0,.56,0,.83h.84s0-.84,0-.84h-.83ZM63.42,92.21h-4.38v.83s.83,0,.83,0v1.67h1.88v.83s.83,0,.83,0v.84s.83,0,.83,0v-.84s.83,0,.83,0v-1.67h-.83v-1.67ZM58.21,95.55h-2.5v2.71h.83s0,.83,0,.83h2.5v-2.71h-.83s0-.83,0-.83ZM64.26,98.27h-2.5v.83s-.83,0-.83,0v1.67h.83s0,.83,0,.83h.84v-.84s.83,0,.83,0v-.84s.83,0,.83,0v-1.67ZM56.54,101.6h-.83v1.04h.83v-1.04ZM56.54,105.15h-.84v.84h.84v-.84ZM58.21,106.82h-2.5v1.88h.83s0-.83,0-.83h1.67v-1.04ZM58.21,102.65v.84c-.28,0-.56,0-.83,0,0,.28,0,.56,0,.83.83,0,1.67,0,2.5,0,0,.28,0,.56,0,.83.35,0,.7,0,1.04,0v-.84s.79,0,.79,0l.04.84h.84v-.84s.83,0,.83,0v-.83h-4.38c0-.28,0-.56,0-.83-.28,0-.56,0-.83,0ZM70.31,103.48c0-.28,0-.56,0-.83h-.83s0-1.04,0-1.04h-.83v-1.67h-.83v-3.55h-.83v-6.05h1.67v.83h1.67v7.09h1.04v-7.09h1.67v-.83h1.67v3.55l-.84.04v.79s.84,0,.84,0v1.67h-.83v3.55h-.83s0,.83,0,.83h-.83s0,1.88,0,1.88h-.83s0,.83,0,.83c-.35,0-.7,0-1.04,0,0,.28,0,.56,0,.83h1.88v-.83s.83,0,.83,0v-.84s.83,0,.83,0v-1.04h.83v1.04h1.88v.83s.83,0,.83,0v1.67h.83v2.71h-.83v1.67h-.83v1.67h-1.04v2.71h-.83v1.67h-.83v1.67h-.83v1.88h-1.67v1.67h-1.04v-1.67h-1.67v-1.88h-.83v-1.67h-.83v-1.67h-.83v-2.71h-1.04v-1.67h-.83v-5.22h.83s0-.83,0-.83h1.04v-.83s.83,0,.83,0v-1.04h.83v1.04h.83s0,.83,0,.83c.56,0,1.11,0,1.67,0ZM68.64,92.21h-.84v.84h.84v-.84ZM73.86,92.21h-.84v.84h.84v-.84ZM71.35,99.93h-1.04v1.67h1.04v-1.67ZM73.02,105.15h-4.38v.83s-.83,0-.83,0v3.55h.83s0,.83,0,.83h4.38v-.83s.83,0,.83,0v-3.55h-.83s0-.83,0-.83ZM68.64,111.2h-.84v.84h.84v-.84ZM73.86,111.2h-.84v.84h.84v-.84ZM70.31,113.08c0-.35,0-.7,0-1.04h-.83v1.04c.28,0,.56,0,.83,0,0,.55,0,1.11,0,1.67-.28,0-.56,0-.83,0v.84s.84,0,.84,0c0-.28,0-.56,0-.83.35,0,.7,0,1.04,0,0,.28,0,.56,0,.83h.84s0-.84,0-.84c-.28,0-.56,0-.83,0,0-.55,0-1.11,0-1.67.28,0,.56,0,.83,0v-1.04h-.83c0,.35,0,.7,0,1.04-.35,0-.7,0-1.04,0ZM83.45,103.48c.56,0,1.11,0,1.67,0,0-.28,0-.56,0-.83-.56,0-1.11,0-1.67,0,0,.28,0,.56,0,.83ZM82.62,103.52v.79c.28,0,.56,0,.84,0,0-.28,0-.56,0-.83-.13,0-.82-.03-.84.04ZM79.91,105.15c-.28,0-.56,0-.83,0v-.84s-.83,0-.83,0v-1.67h-.83v-1.04h-.83v-3.34h-1.04v-2.71h1.04v-6.88h2.5v-.83h2.71v.83s.83,0,.83,0v2.5h.83v1.04h.83s0,.83,0,.83h.84s0,.83,0,.83h.84s0,.83,0,.83h1.04v.83s.83,0,.83,0v3.55l-.84.04v.79s.84,0,.84,0c0,.28,0,.56,0,.83-.62,0-1.25,0-1.88,0v.83s-2.5,0-2.5,0c0,.35,0,.7,0,1.04-1.46,0-2.92,0-4.38,0v.84s.84,0,.84,0c0,.56,0,1.11,0,1.67ZM82.62,92.21h-4.38v1.67h-.83v1.67h.83s0,.83,0,.83h.84v-.84s.83,0,.83,0v-.83s1.88,0,1.88,0v-1.67h.83s0-.83,0-.83ZM85.12,95.55h-1.67v.83s-.83,0-.83,0v1.88h.83s0,.83,0,.83h1.67v-.83s.83,0,.83,0v-1.88h-.83s0-.83,0-.83ZM79.91,98.27h-2.5v1.67h.83v1.67h1.67v-.83s.83,0,.83,0v-1.67h-.83s0-.83,0-.83ZM82.62,100.77h-.84v.84h.84v-.84ZM87.83,100.77c.28,0,.56,0,.83,0v5.22h-.83v3.55h-.83v1.67h-1.88v-.83s-.83,0-.83,0v-.83s-1.67,0-1.67,0v-.83h-1.88v-.83s-.83,0-.83,0c0-.9,0-1.81,0-2.71.28,0,.56,0,.83,0v-1.67h1.04v1.67h1.67c0-.28,0-.56,0-.83.56,0,1.11,0,1.67,0,0-.28,0-.56,0-.83.28,0,.56,0,.83,0v-.83s1.04,0,1.04,0v-1.04h.83c0-.28,0-.56,0-.83ZM85.96,105.15h-.83v1.67h-.83s0-.83,0-.83h-.83v1.88h1.67v.83h1.88v-.83h-1.04v-2.71ZM87.83,56.54c0,.28,0,.56,0,.83.28,0,.56,0,.83,0,0-.28,0-.56,0-.83-.28,0-.56,0-.83,0ZM90.34,46.94c0-.28,0-.56,0-.83h1.88v-.83h5.22v2.5h-1.04v2.71h-.83v2.5h-.83v1.67h-1.67c0,.62,0,1.25,0,1.88-.62,0-1.25,0-1.88,0v.84s-.83,0-.83,0v.84s-.83,0-.83,0c0,.28,0,.56,0,.83-.28,0-.56,0-.83,0,0-.56,0-1.11,0-1.67.28,0,.56,0,.83,0v-.79c0-.07-.71-.04-.83-.04,0-.28,0-.56,0-.83h-1.67v1.67c.28,0,.56,0,.83,0,0,.56,0,1.11,0,1.67h-1.88v-1.67h-.83s0-.83,0-.83h-1.67v-.83s-.83,0-.83,0v-1.88c.56,0,1.11,0,1.67,0,0,.28,0,.56,0,.83h2.71v-.83h-1.04v-.83c-.28,0-.56,0-.83,0,0-.28,0-.56,0-.83h-.83s0-1.67,0-1.67h1.67v-1.04h1.04v-1.67h.83s0-.83,0-.83c.83,0,1.67,0,2.5,0,0,.28,0,.56,0,.83h.84s0-.84,0-.84c-.28,0-.56,0-.83,0ZM96.39,46.11h-1.67v.83h-1.67v1.67h1.67v-.83s.83,0,.83,0v-.84s.83,0,.83,0v-.83ZM90.34,49.45h-1.67v1.04h-1.67v2.5h.83s0,.83,0,.83h.84s0,.83,0,.83h2.5v-1.67h1.04v-2.5h-1.88v-1.04ZM93.88,49.45h-.83v1.04h.83v-1.04ZM99.1,57.37c0-.28,0-.56,0-.83h-.83s0-1.88,0-1.88h-1.88v-1.67h2.71v-.83h4.38v.83h7.72v.83h1.88v1.88h-1.04v.83s-.83,0-.83,0v.84s-.83,0-.83,0v1.67h-.83s0,.83,0,.83h-.83s0,1.04,0,1.04h-1.88v.83c-.83,0-1.67,0-2.5,0v-.83c-.56,0-1.11,0-1.67,0,0-.35,0-.7,0-1.04h-1.04c0-.28,0-.56,0-.83.35,0,.7,0,1.04,0v-3.34h.83v-1.04h-1.88c.01,1.46-.02,2.92,0,4.38-.28,0-.56,0-.83,0,0-.56,0-1.11,0-1.67-.56,0-1.11,0-1.67,0ZM99.93,54.66h-.83v1.04h.83v-1.04ZM105.98,54.66h-.83v1.88h.83s0,.79,0,.79l-.84.04v1.67h.83s0-.83,0-.83h.79s.04.83.04.83h1.88v-1.67h-1.88v-.83h1.88v-1.88h-.83v1.04h-1.88v-1.04ZM84.29,52.99v.83c.28,0,.56,0,.84,0,0-.28,0-.56,0-.83-.28,0-.56,0-.83,0ZM93.05,56.54c.28,0,.56,0,.83,0v-.83s2.5,0,2.5,0v.83h1.04v.83c.56,0,1.11,0,1.67,0,0,.28,0,.56,0,.83h.84s0,.83,0,.83c.28,0,.56,0,.83,0,0,.9,0,1.81,0,2.71h.84s0-.84,0-.84c.35,0,.7,0,1.04,0,0,.28,0,.56,0,.83.56,0,1.11,0,1.67,0,0,.28,0,.56,0,.83h-1.67v1.67h-1.04v.83s-.83,0-.83,0v-1.67h-.83v2.71h-2.5v-1.04h-6.26v1.04h-1.67v-2.71h-.83v-1.67h-1.67v-.83h1.67v-1.04h.83c0-.28,0-.56,0-.83.56,0,1.11,0,1.67,0v-.83s1.04,0,1.04,0v-.83s.83,0,.83,0c0-.28,0-.56,0-.83ZM96.39,58.21h-3.34v.83s-.83,0-.83,0v2.71h.83s0,.83,0,.83h1.67v.83h1.67v-.83h1.04v-2.71h.83s0-.83,0-.83h-1.88v-.83ZM91.17,60.92h-.84v.84h.84v-.84ZM99.1,62.59h-.84v.84h.84v-.84ZM92.21,63.42h-1.88v.83h1.88v-.83ZM54.66,85.12c0,.63,0,1.25,0,1.88.62,0,1.25,0,1.88,0,0,.56,0,1.11,0,1.67.83.01,1.67,0,2.5,0v-1.67h.83v-1.04h-1.67v-.83h-1.67v-.83s-.83,0-.83,0v-1.67h-1.88c0,.83,0,1.67,0,2.5.28,0,.56,0,.83,0ZM52.99,85.12c0-.17.04-1.66-.04-1.67h-.79c0,.56,0,1.11,0,1.67.28,0,.56,0,.83,0ZM47.78,91.17c0-.56,0-1.11,0-1.67h-1.67v-.83s.83,0,.83,0v-.84s.83,0,.83,0v-.84s.83,0,.83,0v-1.04h.83s0-.83,0-.83h1.04l.04-.84h.79s0,.84,0,.84c.28,0,.56,0,.83,0,0,.13-.03.82.04.84h.79c0-.28,0-.56,0-.84.28,0,.56,0,.83,0,0,.63,0,1.25,0,1.88.28,0,.56,0,.83,0,0,.28,0,.56,0,.83-.56,0-1.11,0-1.67,0v-.83s-2.5,0-2.5,0v.83h-1.04v3.34h1.88v1.04c.56,0,1.11,0,1.67,0,0,.28,0,.56,0,.83h.84s0-.84,0-.84c-.28,0-.56,0-.83,0,0-.35,0-.7,0-1.04h1.67c0-1.11,0-2.23,0-3.34.35,0,.7,0,1.04,0v.84c.28,0,.56,0,.83,0,0,.28,0,.56,0,.83h.83s0,1.67,0,1.67h-.83v1.04h-1.88v1.67h-1.67v.83c-.55,0-1.11,0-1.67,0v-.83c-.28,0-.56,0-.83,0,0-.56,0-1.11,0-1.67h-1.04v1.67c.35,0,.7,0,1.04,0,0,.28,0,.56,0,.83.28,0,.56,0,.83,0,0,.28,0,.56,0,.83h-1.88v.83h-5.22v-2.5h1.04v-2.71h.83s.04-.84.04-.84h.79s0,.84,0,.84c.28,0,.56,0,.83,0,0,.35,0,.7,0,1.04h.83v-1.04c-.28,0-.56,0-.83,0ZM48.61,93.05h-1.67v.83s-.83,0-.83,0v1.67h.83s0-.83,0-.83h1.67v-1.67ZM91.17,40.06v1.67h1.04v1.67h.83s0,.83,0,.83h2.5v-.83s-.83,0-.83,0v-1.67h-1.67v-.83s-.83,0-.83,0v-.83s-1.04,0-1.04,0ZM92.21,99.93h-1.04v1.67h1.04v-.83s.83,0,.83,0v-.83s1.67,0,1.67,0v-1.67h-.83s0-.83,0-.83h-.79s-.04.84-.04.84h-.83s0,1.67,0,1.67ZM49.45,40.06v.83s-.83,0-.83,0v.84s-.83,0-.83,0v1.67h-.83s0,.83,0,.83h1.67v-.83s.83,0,.83,0v-1.67h1.04v-1.67h-1.04ZM47.78,99.93h.83s0,.83,0,.83h.84s0,.83,0,.83h1.04v-1.67h-1.04v-1.67h-.83s0-.83,0-.83h-.83v2.5ZM40.89,92.21v1.67h1.67v.83s.83,0,.83,0v-2.5h-2.5ZM98.27,92.21v2.5h.83s0-.83,0-.83h1.67v-1.67h-2.5ZM42.56,46.11v.84s-.83,0-.83,0v1.67h-.83s0,.83,0,.83h1.67v-.83s.83,0,.83,0v-2.5h-.83ZM98.27,48.61h.83s0,.83,0,.83h1.67v-.83s-.83,0-.83,0v-1.67h-.83s0-.83,0-.83h-.83v2.5ZM111.2,74.69v1.88h.83v-1.04h1.04v-.83h-1.88ZM116.42,57.37v1.67h.83s0-.83,0-.83h1.04v-.83h-1.88ZM23.37,57.37v.83h1.04v.83s.83,0,.83,0v-1.67h-1.88ZM28.58,66.14v.83h1.88v-.83h-1.88ZM43.4,89.5v1.67h.83v-1.67h-.83ZM50.49,96.39v1.04h.83v-1.04h-.83ZM83.45,23.37v1.04h.83c0-.35,0-.7,0-1.04.28,0,.56,0,.83,0v-.84s-.84,0-.84,0c0,.28,0,.56,0,.83-.28,0-.56,0-.83,0ZM57.37,24.41h.83v-1.04c-.28,0-.56,0-.83,0,0-.28,0-.56,0-.83h-.84s0,.84,0,.84c.28,0,.56,0,.83,0,0,.35,0,.7,0,1.04ZM90.34,45.27h.83v-1.04c-.28,0-.56,0-.83,0,0-.28,0-.56,0-.83h-.84s0,.84,0,.84c.28,0,.56,0,.83,0,0,.35,0,.7,0,1.04ZM50.49,44.23v1.04h.83c0-.35,0-.7,0-1.04.28,0,.56,0,.83,0v-.84s-.84,0-.84,0c0,.28,0,.56,0,.83-.28,0-.56,0-.83,0ZM80.74,110.37v.83h1.04v-.83h-1.04ZM59.88,114.75v.83h1.04v-.83h-1.04ZM80.74,114.75v.83h1.04v-.83h-1.04ZM56.54,118.29v.84s.84,0,.84,0c0-.28,0-.56,0-.83.28,0,.56,0,.83,0v-1.04h-.83c0,.35,0,.7,0,1.04-.28,0-.56,0-.83,0ZM83.45,118.29c.28,0,.56,0,.83,0,0,.28,0,.56,0,.83h.84s0-.84,0-.84c-.28,0-.56,0-.83,0,0-.35,0-.7,0-1.04-.28,0-.56,0-.83,0,0-.28,0-.56,0-.83h-.84s0,.84,0,.84c.28,0,.56,0,.83,0,0,.35,0,.7,0,1.04ZM97.43,90.34v.84h.84v-.84h-.84ZM113.08,73.02v.84h.84v-.84h-.84ZM97.43,50.49v.84h.84v-.84h-.84ZM43.39,50.49v.84h.84v-.84h-.84ZM59.04,25.24v.84h.84v-.84h-.84ZM26.91,92.21v1.67h.83s0,.83,0,.83h.79s.04-.83.04-.83h1.04v-1.67h-2.71ZM28.58,73.86v1.67h1.04v1.04h.83v-1.88h-.83s0-.83,0-.83h-1.04ZM122.47,91.17v1.04h-.83v1.67h2.71v-.83s.83,0,.83,0v-1.88h-2.71ZM126.01,93.05v.84h.84v-.84h-.84ZM119.96,89.5v.84s.84,0,.84,0c0-.28,0-.56,0-.83.28,0,.56,0,.83,0v-.84s-.84,0-.84,0c0,.28,0,.56,0,.83-.28,0-.56,0-.83,0ZM90.34,20.03h.84s0,.83,0,.83h1.88v-.83s.83,0,.83,0v-1.88h-.83s0-.83,0-.83h-1.88v.83c-.28,0-.56,0-.83,0,0-.28,0-.56,0-.83h-.84s0,.84,0,.84c.28,0,.56,0,.83,0,0,.62,0,1.25,0,1.88ZM17.32,91.17v1.04h-.83v1.67h3.55v-1.67h-.83v-1.04h-1.88ZM21.7,91.17h.84s0-.84,0-.84c-.28,0-.56,0-.83,0,0-.28,0-.56,0-.83h-.84s0,.84,0,.84c.28,0,.56,0,.83,0,0,.28,0,.56,0,.83ZM52.16,18.15v-.84s-.84,0-.84,0c0,.28,0,.56,0,.83-.28,0-.56,0-.83,0v-.83s-1.88,0-1.88,0v.83s-.83,0-.83,0v1.88h.83s0,.83,0,.83h1.88v-.83s.83,0,.83,0c0-.62,0-1.25,0-1.88.28,0,.56,0,.83,0ZM48.61,14.81v.84h.84v-.84h-.84ZM51.32,21.7v.84h.84v-.84h-.84ZM48.61,120.8v.83s-.83,0-.83,0v1.88h.83s0,.83,0,.83h1.88v-.83s.83,0,.83,0v-1.88h-.83s0-.83,0-.83h-1.88ZM51.32,119.13v1.67h.83v-1.67h-.83ZM47.78,125.18v.84h.84v-.84h-.84ZM91.17,120.8v.83s-.83,0-.83,0v1.88h.83s0,.83,0,.83h1.88v-.83s.83,0,.83,0v-1.88h-.83s0-.83,0-.83h-1.88ZM93.88,119.96v.84h.84v-.84h-.84ZM122.47,46.94v.83s-.83,0-.83,0v1.67h.83v1.04h1.88v-1.04h.83v-1.67h-.83s0-.83,0-.83h-1.88ZM126.01,46.94v1.67h.83v-1.67h-.83ZM120.8,52.16h.84s0-.84,0-.84c-.28,0-.56,0-.83,0,0-.28,0-.56,0-.83h-.84s0,.84,0,.84c.28,0,.56,0,.83,0,0,.28,0,.56,0,.83ZM17.32,46.94v.83s-.83,0-.83,0v1.67h.83v1.04h1.88v-1.04h.83v-1.67h-.83s0-.83,0-.83h-1.88ZM20.86,50.49v.84h.84v-.84h-.84ZM104.32,34.84v.83h-1.67v.83h1.67v1.67h1.67v-1.67l.84-.04v-.79s-.84,0-.84,0v-.83s-1.67,0-1.67,0ZM35.68,34.84v.83s-.83,0-.83,0v.79s.83.04.83.04v1.67h1.67v-1.67h1.67v-.83h-1.67v-.83h-1.67ZM118.29,71.35c-.35,0-.7,0-1.04,0v.83h1.04c0-.28,0-.56,0-.83.28,0,.56,0,.83,0v.84s.79,0,.79,0l.04-.84h1.67v-1.04h-1.67l-.04-.84h-.79s0,.84,0,.84c-.28,0-.56,0-.83,0,0-.28,0-.56,0-.83h-1.04v.83c.35,0,.7,0,1.04,0,0,.35,0,.7,0,1.04ZM35.68,103.48v1.67h-.83s0,.79,0,.79l.84.04v1.88h1.67v-1.88h1.67v-.83h-1.67v-1.67h-1.67ZM104.32,103.48v1.67h-1.67v.83h1.67v1.88h1.67v-1.88h.83s0-.79,0-.79l-.84-.04v-1.67h-1.67ZM23.37,72.19h1.04v-.83c-.35,0-.7,0-1.04,0,0-.35,0-.7,0-1.04h1.04v-.83h-2.71v.83h-1.67v1.04h1.67l.04.84h.79s0-.84,0-.84c.28,0,.56,0,.83,0,0,.28,0,.56,0,.83ZM46.94,112.03v1.88h1.67v-1.88h-1.67ZM46.94,27.75v1.88h1.67v-1.88h-1.67ZM93.05,27.75v1.88h1.67v-1.88h-1.67ZM93.05,112.03v1.88h1.67v-1.88h-1.67ZM24.41,83.45v.84h.84v-.84h-.84ZM116.42,84.29h1.88v-.83h-1.04v-.83s-.83,0-.83,0v1.67ZM73.86,64.26v.83s-.83,0-.83,0v1.88h.83s0,.83,0,.83h2.71v-.83s.83,0,.83,0v-1.88h-.83s0-.83,0-.83h-2.71ZM76.57,61.75v1.67h1.67v-1.67h-1.67ZM69.47,32.13v.84s-.83,0-.83,0v1.88h.83s0,.83,0,.83h.83v-3.55h-.83ZM72.19,33.8h-.83s0,1.88,0,1.88h.83s0-.83,0-.83h.83s0-1.88,0-1.88c-.28,0-.56,0-.83,0,0-.28,0-.56,0-.83h-.84s0,.84,0,.84c.28,0,.56,0,.83,0,0,.28,0,.56,0,.83ZM69.47,109.53h.84s0-.84,0-.84c-.28,0-.56,0-.83,0,0-.28,0-.56,0-.83h.83s0-1.88,0-1.88h-.83s0,.83,0,.83h-.83s0,1.88,0,1.88c.28,0,.56,0,.83,0,0,.28,0,.56,0,.83ZM71.35,108.7v.84s.84,0,.84,0c0-.28,0-.56,0-.83.28,0,.56,0,.83,0v-1.88h-.83s0-.83,0-.83h-.83v1.88h.83c0,.28,0,.56,0,.83-.28,0-.56,0-.83,0Z"/>
</svg>