<?xml version="1.0" encoding="UTF-8"?>
<svg id="_Слой_1" data-name="Слой_1" xmlns="http://www.w3.org/2000/svg" version="1.1" viewBox="0 0 1536 2752">
  <!-- Generator: Adobe Illustrator 29.8.1, SVG Export Plug-In . SVG Version: 2.1.1 Build 2)  -->
  <path d="M768.02,1510c4.3,3.4,12.47-35.16,13.05-37.92,5.2-24.93,6.59-50.07,9.35-74.62.55-4.91,4.22-10.2,4.5-16.41.88-19.45-7.47-66.71-11.47-87.5-1.26-6.56-8.78-47.48-14.45-47.51-12.45,16.05-8.84,38.42-11.22,56.74-1.7,13.12-7.58,28.38-9.54,42.46-4.76,34.21.31,78.62,6.26,113.26,2.99,17.44,7.93,34.8,13.53,51.49Z"/>
  <path d="M768.02,1510c-5.59-16.69-10.53-34.06-13.53-51.49-5.94-34.64-11.02-79.04-6.26-113.26,1.96-14.09,7.84-29.34,9.54-42.46,2.38-18.32-1.24-40.69,11.22-56.74,5.67.02,13.19,40.94,14.45,47.51,3.99,20.79,12.35,68.05,11.47,87.5-.28,6.2-3.95,11.49-4.5,16.41-2.76,24.55-4.15,49.69-9.35,74.62-.57,2.76-8.75,41.32-13.05,37.92Z"/>
</svg>